<?xml version="1.0" encoding="UTF-8"?>
<svg version="1.1" xmlns="http://www.w3.org/2000/svg" width="3464" height="3464">
<path d="M0 0 C0.77085937 0.6290625 1.54171875 1.258125 2.3359375 1.90625 C17.10179149 14.35256371 27.32006964 31.53821148 37 48 C37.38897461 48.6501709 37.77794922 49.3003418 38.17871094 49.97021484 C70.82919777 104.63783394 82.13104571 169.02473812 89.25 231.4375 C89.40098145 232.73502197 89.55196289 234.03254395 89.70751953 235.36938477 C90.2124923 239.90678967 90.61525621 244.4509946 91 249 C91.08786774 250.0060025 91.17573547 251.012005 91.26626587 252.04849243 C93.4337931 277.85059859 93.27351215 303.65375619 93.19763947 329.52803802 C93.18734455 333.37051915 93.18069477 337.21299007 93.17523193 341.05548096 C93.14855547 359.77741778 93.09063841 378.49915749 93.01834869 397.22097015 C93.00272026 401.27066047 92.9876805 405.32035275 92.97277468 409.37004578 C92.64090301 499.2837722 92.26146334 589.19125378 87.08503723 751.70133972 C87.00266234 753.92803379 86.92084563 756.15474759 86.8392334 758.38146973 C86.52896926 766.83809454 86.20802722 775.29424097 85.875 783.75 C85.83656982 784.74582092 85.79813965 785.74164185 85.75854492 786.76763916 C85.65320615 789.46508056 85.54258441 792.16224074 85.4296875 794.859375 C85.40063324 795.61401031 85.37157898 796.36864563 85.34164429 797.14614868 C85.16544436 801.16781433 84.75118587 805.04483972 84 809 C95.87331844 799.44703901 107.37193889 789.47571926 118.60546875 779.1796875 C120.62917929 777.33754968 122.67624279 775.53511863 124.75 773.75 C130.64252272 768.62242952 136.29556016 763.2300205 141.98779297 757.8828125 C143.87048361 756.12118787 145.76332427 754.37137071 147.66015625 752.625 C157.71695096 743.32086971 167.43007061 733.6779084 177.125 724 C177.80780029 723.3197879 178.49060059 722.63957581 179.1940918 721.93875122 C188.71011696 712.49194095 188.71011696 712.49194095 197.68310547 702.53515625 C199.50995193 700.40552878 201.4871034 698.45281014 203.5 696.5 C206.80263851 693.23615087 209.90050648 689.8858581 212.921875 686.36328125 C215.71845612 683.18295873 218.60992784 680.09525548 221.5 677 C226.09093366 672.07391465 230.62250541 667.11787422 235 662 C235.87622321 660.97779697 236.75253345 659.95566854 237.62890625 658.93359375 C239.14327815 657.16699451 240.6571143 655.39994871 242.16943359 653.6315918 C245.43561689 649.81463836 248.72149663 646.01568543 252.02075195 642.22729492 C256.96257816 636.5500219 261.83896884 630.83634747 266.57421875 624.984375 C268.43843707 622.69087614 270.31599398 620.41185623 272.20703125 618.140625 C279.24690169 609.67406004 286.07517194 601.08620561 292.72265625 592.30859375 C295.50708858 588.63421369 298.33673637 584.99747563 301.18017578 581.36865234 C312.72430019 566.62976608 323.74029918 551.52321986 334.46826172 536.18212891 C336.03360712 533.95212297 337.61131271 531.73129442 339.19140625 529.51171875 C349.53094071 514.93810096 359.29811534 500.00204964 369 485 C369.59087402 484.08798828 370.18174805 483.17597656 370.79052734 482.23632812 C395.30788919 444.28654197 416.34625764 404.10881327 436.95129395 363.94007874 C445.11188249 348.0323998 453.36434115 332.1879903 461.9765625 316.51953125 C464.05509679 312.73638247 466.11016237 308.94170805 468.1484375 305.13671875 C474.66120677 292.98991863 481.40623281 281.01382231 488.3984375 269.13671875 C491.50646096 263.85681325 494.56344512 258.54903085 497.60986328 253.23339844 C505.1884337 240.0183764 512.9871378 226.95598967 521 214 C521.61375488 213.00726074 522.22750977 212.01452148 522.85986328 210.99169922 C542.27804527 179.63926978 562.53394435 149.06278982 585.3671875 120.078125 C586.88861291 118.14176539 588.39957955 116.1978502 589.90625 114.25 C595.86891136 106.55966042 602.08230134 99.12779157 608.46191406 91.78076172 C610.04536611 89.94747613 611.61426346 88.10260206 613.1796875 86.25390625 C622.32195041 75.4705067 622.32195041 75.4705067 627.33422852 70.66650391 C628.95494638 69.04507343 630.42390359 67.36457584 631.90234375 65.61328125 C636.70082619 60.09720384 641.86451773 54.94944256 647.03222656 49.7824707 C648.73794598 48.07456944 650.43549027 46.35881955 652.1328125 44.64257812 C658.77673075 37.96457612 665.57758635 31.81609333 673 26 C674.0962069 25.10818845 675.19147691 24.21522194 676.28515625 23.3203125 C716.60841639 -8.55264418 763.89738231 -21.43535465 814.82470703 -16.17529297 C848.44294215 -12.09319643 880.21502949 0.8078113 901.69921875 27.8828125 C915.83160489 47.0299163 925.67179048 68.36867061 930.8125 91.625 C931.00739014 92.50551025 931.20228027 93.38602051 931.40307617 94.29321289 C934.99784443 111.70621331 935.36806233 128.89794276 935.3125 146.625 C935.31034485 147.86020386 935.3081897 149.09540771 935.30596924 150.36804199 C935.16992513 199.16305357 929.26261666 247.31037214 919 295 C918.72575195 296.27907227 918.45150391 297.55814453 918.16894531 298.87597656 C900.65741593 379.36206203 871.31686677 457.72305283 836 532 C835.70671814 532.61707825 835.41343628 533.23415649 835.11126709 533.86993408 C822.31620636 560.76612138 809.10144569 587.44933047 794.26171875 613.28515625 C791.95039707 617.31189553 789.68917644 621.36242745 787.45703125 625.43359375 C779.06384315 640.74006554 770.26070232 655.71631825 761.10546875 670.57421875 C759.054997 673.90481928 757.02637672 677.24842985 755 680.59375 C746.02227171 695.37105299 736.60276362 709.79968544 726.93408203 724.12890625 C724.85983765 727.20806731 722.80297254 730.29825294 720.75219727 733.39306641 C711.68970759 747.0621202 702.28768007 760.4663591 692.64404297 773.73095703 C691.03698711 775.94895185 689.44051093 778.17413413 687.84765625 780.40234375 C680.03051059 791.32308885 671.95851287 802.0332589 663.77734375 812.68359375 C662.25269352 814.67066537 660.73377738 816.66184082 659.21875 818.65625 C653.62820418 825.98930361 647.85269013 833.15616515 642.01953125 840.296875 C639.67995391 843.16107612 637.36260421 846.04143732 635.0625 848.9375 C622.58273953 864.56341857 609.70696972 879.83834466 596.19921875 894.5859375 C594.25198729 896.72339583 592.33590111 898.88172802 590.4375 901.0625 C577.20232946 916.24940075 563.35357725 930.86762514 549 945 C553.17452226 952.73609597 557.47552602 960.38979731 561.875 968 C562.52138428 969.12011475 563.16776855 970.24022949 563.83374023 971.39428711 C568.51271278 979.48874177 573.27575166 987.5312578 578.0625 995.5625 C583.81891076 1005.22584155 589.39687109 1014.97203102 594.85620117 1024.8059082 C598.76996031 1031.8437938 602.78998877 1038.81031934 606.875 1045.75 C613.78443464 1057.51272084 620.37729957 1069.43952748 626.93057251 1081.4025116 C629.32785145 1085.77836541 631.73493193 1090.14870134 634.1484375 1094.515625 C634.4889061 1095.13166595 634.82937469 1095.74770691 635.18016052 1096.38241577 C635.86370633 1097.61918251 636.54725429 1098.85594806 637.23080444 1100.0927124 C648.32732769 1120.17789461 659.28059062 1140.33594957 670.09689331 1160.57333374 C672.34838872 1164.78480235 674.60627435 1168.99279963 676.8671875 1173.19921875 C684.22367419 1186.89069155 691.48920116 1200.62540029 698.65625 1214.41699219 C703.49837665 1223.72471384 708.38406216 1233.0088196 713.359375 1242.24609375 C721.42469838 1257.22362427 729.30708677 1272.28308456 737.07415771 1287.41738892 C737.59432465 1288.43087906 737.59432465 1288.43087906 738.125 1289.46484375 C738.46517151 1290.12769379 738.80534302 1290.79054382 739.15582275 1291.47348022 C742.59637696 1298.17178219 746.10172707 1304.83503623 749.62109375 1311.4921875 C752.39210241 1316.73450976 755.13379735 1321.99204629 757.875 1327.25 C758.37813721 1328.21502441 758.88127441 1329.18004883 759.3996582 1330.17431641 C760.42245322 1332.13634635 761.44515781 1334.09842343 762.46777344 1336.06054688 C764.97707907 1340.87444743 767.48861026 1345.68718648 770 1350.5 C773.02457655 1356.29628191 776.04863085 1362.09283329 779.0703125 1367.890625 C784.05128598 1377.44583217 789.04413108 1386.99425946 794.07519531 1396.52319336 C796.50888961 1401.14135398 798.91885383 1405.77110057 801.3125 1410.41015625 C807.23698701 1421.89141482 813.22254902 1433.32276913 819.45385742 1444.640625 C824.11001058 1453.12966721 828.56377758 1461.71968318 832.99780273 1470.32641602 C835.7906824 1475.74674885 838.6042122 1481.14969259 841.51635742 1486.50683594 C847.70008065 1497.91894405 853.01671367 1509.75016509 858.4140625 1521.54736328 C859.84489512 1524.6623317 861.29268906 1527.76844893 862.75 1530.87109375 C895.84359468 1601.60619736 922.68283989 1676.9928536 943 1902 C942.76410156 1903.06395996 942.76410156 1903.06395996 942.5234375 1904.14941406 C934.92327067 1937.36793987 915.38745406 1971.85141913 886.54296875 1990.83984375 C859.91169169 2007.3323481 830.89243641 2013.45873496 799.8125 2013.3125 C799.00362335 2013.31067719 798.1947467 2013.30885437 797.36135864 2013.30697632 C784.69615002 2013.25905939 772.42197436 2012.65141301 760 2010 C758.77603516 2009.75056641 758.77603516 2009.75056641 757.52734375 2009.49609375 C730.40500458 2003.83687306 705.17744809 1991.47209645 683 1975 C682.41782715 1974.56800293 681.8356543 1974.13600586 681.23583984 1973.69091797 C673.64603111 1968.01844409 666.26965228 1962.07627571 659 1956 C658.4838916 1955.57025879 657.9677832 1955.14051758 657.43603516 1954.69775391 C642.53027329 1942.24883902 627.70745022 1929.07117491 615.0390625 1914.3203125 C612.96442648 1911.95951979 610.83516026 1909.66039642 608.68994141 1907.36401367 C599.11238609 1897.10362796 590.47891244 1886.17700161 582 1875 C581.44538086 1874.27135742 580.89076172 1873.54271484 580.31933594 1872.79199219 C570.90252578 1860.4052256 561.79936084 1847.83286357 553 1835 C552.54818359 1834.34225586 552.09636719 1833.68451172 551.63085938 1833.00683594 C529.2244794 1800.25772604 510.27892515 1765.14623027 492.078125 1729.9375 C489.84381408 1725.61728257 487.58200874 1721.31317207 485.29760742 1717.01928711 C480.59052238 1708.16079414 476.0553952 1699.21845825 471.5625 1690.25 C470.97807129 1689.08573486 470.39364258 1687.92146973 469.79150391 1686.72192383 C467.07719118 1681.29315779 464.39523597 1675.85130578 461.79833984 1670.36523438 C455.80484311 1657.70398865 449.61675228 1645.14957368 443.34375 1632.625 C442.90842894 1631.75578667 442.47310787 1630.88657333 442.02459526 1629.9910202 C438.8525626 1623.65925856 435.67666357 1617.32943927 432.5 1611 C428.88287057 1603.79294121 425.26727832 1596.58511798 421.65625 1589.375 C421.2223143 1588.50864929 420.7883786 1587.64229858 420.34129333 1586.74969482 C414.99513039 1576.06956631 409.71747122 1565.36525191 404.60620117 1554.5703125 C400.47823842 1545.85728298 396.161699 1537.2424099 391.82504272 1528.6317749 C385.4189004 1515.90801568 379.04963581 1503.17587106 372.96875 1490.29296875 C369.10226623 1482.13310238 365.05321471 1474.06814737 361 1466 C356.00118852 1456.04624658 351.06589818 1446.07093352 346.29077148 1436.00732422 C342.10299158 1427.18630527 337.83502283 1418.40517795 333.5625 1409.625 C328.18589325 1398.572499 322.8301008 1387.51083178 317.52539062 1376.42358398 C314.75744239 1370.64403671 311.97034312 1364.87428382 309.1640625 1359.11328125 C302.3440678 1345.10830822 295.59289431 1331.0825023 289.06787109 1316.93676758 C284.5042246 1307.05257373 279.85513407 1297.21042906 275.1875 1287.375 C273.65611789 1284.14719808 272.12487827 1280.91932859 270.59375 1277.69140625 C270.21400528 1276.89086823 269.83426056 1276.0903302 269.44300842 1275.26553345 C265.69091192 1267.35311967 261.95300251 1259.43405259 258.22280884 1251.5112915 C257.54403553 1250.06971105 256.86498841 1248.62825947 256.18563843 1247.18695068 C254.11574389 1242.79501283 252.05410081 1238.39934862 250 1234 C249.48646973 1232.90349121 248.97293945 1231.80698242 248.44384766 1230.67724609 C247.75427979 1229.18765381 247.75427979 1229.18765381 247.05078125 1227.66796875 C246.65157471 1226.80840576 246.25236816 1225.94884277 245.84106445 1225.06323242 C245 1223 245 1223 245 1221 C237.38220978 1225.04012964 230.03061741 1229.38326067 222.75 1234 C214.70545348 1239.06601187 206.6323881 1244.07621377 198.5 1249 C190.62667059 1253.770898 182.79820171 1258.60728274 175 1263.5 C166.18846001 1269.0278294 157.33120751 1274.47359625 148.43798828 1279.86889648 C138.58574158 1285.84898896 128.79155773 1291.92123297 119 1298 C115.2715158 1300.31360232 111.54217575 1302.62581917 107.8125 1304.9375 C106.55735596 1305.71685913 106.55735596 1305.71685913 105.27685547 1306.51196289 C104.47006348 1307.01203857 103.66327148 1307.51211426 102.83203125 1308.02734375 C102.09222519 1308.50064117 101.35241913 1308.9739386 100.5901947 1309.46157837 C98 1311 98 1311 95.38017273 1312.1320343 C92.46706085 1313.48922643 90.32011318 1314.76378055 88 1317 C86.55576621 1321.45370096 86.74197023 1325.74398975 86.875 1330.390625 C86.87705923 1331.72446265 86.8744491 1333.05831468 86.86746216 1334.39213562 C86.86136299 1337.21657144 86.88504254 1340.03849002 86.9331665 1342.86251831 C87.00742119 1347.27015436 87.01287609 1351.67607044 87.00341797 1356.08422852 C87.00094437 1357.54878214 86.99859404 1359.01333599 86.99636841 1360.47789001 C86.99525181 1361.19768476 86.99413521 1361.91747952 86.99298477 1362.65908623 C86.99218971 1364.8259952 86.99790286 1366.99278981 87.00582886 1369.15968323 C87.1326028 1406.93710936 82.56939223 1444.61913875 77.84234619 1482.04870605 C74.45309498 1508.91742273 71.23028344 1535.79305494 68.625 1562.75 C68.5053891 1563.98721802 68.3857782 1565.22443604 68.26254272 1566.49914551 C66.98830412 1579.77677515 65.81319434 1593.06095296 64.71641541 1606.35432434 C56.89598497 1701.08998604 43.49792516 1806.26981195 -35 1918 C-35.72058594 1918.84433594 -36.44117187 1919.68867188 -37.18359375 1920.55859375 C-40.80001444 1924.73897868 -44.53123975 1928.50588874 -48.7578125 1932.06640625 C-50.94227162 1933.95021681 -53.03369617 1935.91418649 -55.12548828 1937.8996582 C-86.56778245 1967.52462668 -127.50288996 1980.35377049 -170 1982 C-170.6609668 1982.02868164 -171.32193359 1982.05736328 -172.00292969 1982.08691406 C-221.38241703 1983.97235606 -267.64619363 1968.41087919 -304 1935 C-363.7603183 1879.24765864 -383.16253722 1798.21641277 -386 1719 C-386.35871089 1705.610307 -386.29619147 1692.21033424 -386.25794983 1678.81713104 C-386.24986788 1675.82610577 -386.24491975 1672.83508808 -386.24060059 1669.84405518 C-386.13898165 1608.46089067 -383.94661396 1547.25443672 -380 1486 C-379.8794223 1484.12387024 -379.8794223 1484.12387024 -379.75640869 1482.20983887 C-376.98624507 1439.7003402 -372.50785598 1397.33873355 -368.25585938 1354.95846558 C-362.28677004 1295.46112141 -357.016146 1235.9730604 -353.21032715 1176.29296875 C-352.9482164 1172.18925452 -352.68178088 1168.0858255 -352.41485596 1163.98242188 C-350.87465869 1139.77088055 -349.63218606 1115.54598573 -348.578125 1091.30859375 C-348.54630371 1090.57823969 -348.51448242 1089.84788562 -348.48169684 1089.09539962 C-347.29724559 1061.80602317 -346.42463115 1034.51154372 -345.67578125 1007.20703125 C-345.64875901 1006.22187885 -345.62173677 1005.23672644 -345.59389567 1004.22172093 C-345.33975895 994.93840372 -345.0886732 985.6550049 -344.83966923 976.37154865 C-344.16421587 951.19230529 -343.4592819 926.01391643 -342.73828125 900.8359375 C-342.70409419 899.64177145 -342.66990712 898.4476054 -342.63468409 897.21725249 C-339.46161422 786.55664282 -335.65564271 675.89769828 -327.17709351 481.68993378 C-326.99919013 477.98312545 -326.82233157 474.27626858 -326.64575195 470.56939697 C-323.82415111 411.38924234 -320.62945231 352.23115662 -317.20740104 293.08298922 C-316.94660239 288.57467257 -316.68695548 284.06629183 -316.42836434 279.55784804 C-313.22487267 223.7217435 -313.22487267 223.7217435 -311.40625 203.01953125 C-311.29718826 201.76968445 -311.18812653 200.51983765 -311.07575989 199.2321167 C-309.00675812 177.14465339 -304.64272297 155.43579867 -299 134 C-298.76168457 133.07896484 -298.52336914 132.15792969 -298.27783203 131.20898438 C-294.83955952 118.04113222 -290.45475252 105.46766277 -285 93 C-284.43539063 91.70811768 -284.43539063 91.70811768 -283.859375 90.39013672 C-274.37581529 68.99285513 -261.72964451 50.13355396 -247 32 C-246.36578125 31.18273437 -245.7315625 30.36546875 -245.078125 29.5234375 C-242.86018093 26.8302197 -240.50368562 24.4297215 -238 22 C-237.52095215 21.53190918 -237.0419043 21.06381836 -236.54833984 20.58154297 C-208.21590684 -6.92261427 -174.15718778 -24.89313481 -135 -31 C-134.25137695 -31.11714355 -133.50275391 -31.23428711 -132.73144531 -31.35498047 C-85.96962833 -38.26554323 -36.98176204 -30.56343971 0 0 Z " fill="#FFFFFF" transform="translate(2092,647)"/>
<path d="M0 0 C3.87963825 0.01144406 7.75900356 0.00456427 11.63863277 -0.00687027 C35.80502869 -0.06744233 59.70435795 0.9383715 83.64038086 4.51074219 C84.36603241 4.61678772 85.09168396 4.72283325 85.83932495 4.83209229 C127.9200334 11.0101102 169.35723282 22.09767881 208.32788086 39.26074219 C209.35333008 39.71175293 210.3787793 40.16276367 211.43530273 40.62744141 C226.81873456 47.44835345 241.71935876 54.91187321 256.32788086 63.26074219 C257.21894531 63.76686035 258.11000977 64.27297852 259.02807617 64.79443359 C293.51658359 84.47112611 325.16218872 107.84396384 354.42163086 134.63574219 C356.63772951 136.63737968 358.875147 138.59668912 361.13647461 140.54589844 C365.57161429 144.41761305 369.73998431 148.52530955 373.89038086 152.69824219 C374.60645508 153.41044922 375.3225293 154.12265625 376.06030273 154.85644531 C380.11661945 158.92014387 383.99191979 163.08248292 387.73974609 167.43188477 C389.95222145 169.97971764 392.26760828 172.42664837 394.57788086 174.88574219 C400.12927304 180.87130526 405.13241572 187.22442766 410.1081543 193.68994141 C411.75045907 195.80495119 413.44575613 197.87503108 415.14038086 199.94824219 C444.30414671 236.43270844 467.52114956 277.6024639 486.32788086 320.26074219 C487.01696533 321.82139404 487.01696533 321.82139404 487.7199707 323.41357422 C502.00057539 356.16883204 513.03084327 390.52614235 521.32788086 425.26074219 C521.61453613 426.45393066 521.90119141 427.64711914 522.1965332 428.87646484 C531.5763165 468.3752231 537.62498428 508.8176389 539.45288086 549.38574219 C539.49457397 550.29115753 539.53626709 551.19657288 539.57922363 552.12942505 C543.11823955 630.23263974 533.39146946 707.53896524 445.32788086 931.26074219 C444.37599173 932.95481593 443.42412171 934.64890046 442.47271729 936.34324646 C434.94288574 949.73820416 427.21189273 962.96629426 418.86254883 975.87109375 C417.17632642 978.49672928 415.51810894 981.13880418 413.86303711 983.78417969 C407.88585124 993.31560993 401.79001486 1002.64363373 395.02709961 1011.63574219 C392.61068919 1014.85174554 390.30035377 1018.13319642 388.00317383 1021.43505859 C381.12429827 1031.32104351 373.80370559 1040.8209296 366.32788086 1050.26074219 C365.61116211 1051.17082031 364.89444336 1052.08089844 364.15600586 1053.01855469 C350.92147279 1069.70311561 337.34187015 1086.14210613 322.66601562 1101.58129883 C319.74656905 1104.65559161 316.88373872 1107.75312519 314.1237793 1110.97192383 C310.2729914 1115.38487588 306.19648469 1119.5365069 302.05053711 1123.67089844 C301.28035751 1124.44203476 300.51017792 1125.21317108 299.71665955 1126.00767517 C298.09846713 1127.62654372 296.47902874 1129.2441677 294.85839844 1130.8605957 C292.39720854 1133.31642937 289.94140277 1135.77755583 287.48608398 1138.23925781 C285.90372219 1139.82095872 284.32105019 1141.40234936 282.73803711 1142.98339844 C282.01383072 1143.70962906 281.28962433 1144.43585968 280.54347229 1145.18409729 C276.5257418 1149.18367202 272.41929899 1153.01137686 268.10569763 1156.69090271 C266.32073301 1158.26705384 264.66411455 1159.91855793 263.01538086 1161.63574219 C259.35825252 1165.35906289 255.33691639 1168.54894932 251.27319336 1171.81542969 C248.25362368 1174.32239337 245.37682637 1176.95290015 242.51538086 1179.63574219 C237.83246018 1184.00206463 232.9600171 1188.01343895 227.89111328 1191.92211914 C223.85729633 1195.03793664 219.91389531 1198.24320467 216.00097656 1201.50952148 C209.17683794 1207.20512039 202.26437296 1212.60654849 194.97241211 1217.68652344 C192.42694797 1219.46482353 189.93548302 1221.29819937 187.46459961 1223.17871094 C154.46618134 1248.21239065 118.54412499 1269.75766528 82.08380127 1289.31866455 C80.36390622 1290.24141404 78.64543809 1291.16682156 76.92700195 1292.09228516 C3.40210837 1331.51711837 -77.69875774 1357.25991955 -192.67211914 1368.26074219 C-193.2425152 1387.03232835 -193.81013708 1405.80399097 -194.36889648 1424.57592773 C-194.51334722 1429.42523367 -194.65907204 1434.27449675 -194.80648422 1439.12371349 C-194.91973515 1442.85036462 -195.03240536 1446.57703315 -195.14477539 1450.30371094 C-195.16722824 1451.04812502 -195.18968109 1451.7925391 -195.21281433 1452.55951118 C-195.51931984 1462.75693062 -195.79745404 1472.95473628 -196.05296326 1483.15355301 C-198.46901705 1579.13088795 -206.94941251 1674.49857514 -248.67211914 1883.26074219 C-248.88503601 1883.92033936 -249.09795288 1884.57993652 -249.31732178 1885.25952148 C-256.0596748 1906.09610332 -263.64211406 1926.29985541 -272.67211914 1946.26074219 C-273.37561129 1947.85042351 -274.07877453 1949.44025046 -274.78149414 1951.03027344 C-286.80619501 1977.8089457 -303.38530324 2002.21962891 -322.67211914 2024.26074219 C-323.11813477 2024.77137207 -323.56415039 2025.28200195 -324.02368164 2025.80810547 C-351.6031679 2057.16767482 -387.3805203 2078.71976466 -429.67211914 2082.26074219 C-432.57513241 2082.40269938 -435.47294931 2082.4466571 -438.37915039 2082.46386719 C-439.1781929 2082.47092682 -439.97723541 2082.47798645 -440.80049133 2082.48526001 C-474.43010493 2082.71503098 -474.43010493 2082.71503098 -488.67211914 2079.26074219 C-489.52322266 2079.05674805 -490.37432617 2078.85275391 -491.2512207 2078.64257812 C-527.9118213 2069.56660241 -556.94083087 2049.39043802 -579.38647461 2018.99511719 C-580.68316517 2017.24584074 -582.00515705 2015.51826205 -583.33227539 2013.79199219 C-621.70707649 1963.34842352 -640.5482328 1901.35365101 -652.98461914 1840.01074219 C-653.21465637 1838.88955994 -653.21465637 1838.88955994 -653.44934082 1837.74572754 C-659.02630087 1810.29821682 -662.33526429 1782.45311828 -665.02115631 1754.59535599 C-665.24041522 1752.32574536 -665.46217776 1750.05639043 -665.68450928 1747.78707886 C-671.74707753 1685.82056703 -675.70718817 1623.65951817 -678.39868164 1561.45605469 C-678.44294281 1560.43591278 -678.48720398 1559.41577087 -678.5328064 1558.36471558 C-679.33621131 1538.795498 -679.80578985 1519.21326977 -680.18383789 1499.63183594 C-680.2048802 1498.5515682 -680.22592251 1497.47130047 -680.24760246 1496.35829735 C-680.75318925 1470.09823842 -681.02595452 1443.83713589 -681.23461914 1417.57324219 C-681.24495934 1416.29691044 -681.25529953 1415.02057869 -681.26595306 1413.70557022 C-681.9096138 1333.86688286 -681.91333887 1254.02442999 -646.73461914 245.51074219 C-646.50589111 244.50342041 -646.27716309 243.49609863 -646.04150391 242.45825195 C-643.40242901 231.78112725 -639.61929454 225.03264271 -630.42211914 218.88574219 C-629.62563965 218.33394287 -628.82916016 217.78214355 -628.00854492 217.21362305 C-625.57715555 215.54069061 -623.12782486 213.8977118 -620.67211914 212.26074219 C-619.97505859 211.78878418 -619.27799805 211.31682617 -618.55981445 210.83056641 C-606.89211361 202.94506474 -594.70696024 195.93958831 -582.51489258 188.90478516 C-578.43082149 186.54287046 -574.36233632 184.15492058 -570.29711914 181.76074219 C-569.34579102 181.20181274 -569.34579102 181.20181274 -568.37524414 180.6315918 C-565.72442291 179.07164782 -563.07771748 177.50688859 -560.44824219 175.91113281 C-553.47439257 171.68293218 -546.37744053 167.69529682 -539.23461914 163.76074219 C-538.60883972 163.41547485 -537.9830603 163.07020752 -537.33831787 162.71447754 C-524.94622296 155.88476785 -512.41419048 149.34844861 -499.82543945 142.88818359 C-496.81500475 141.33448603 -493.8156993 139.7616545 -490.82055664 138.17871094 C-453.43181592 118.42537917 -414.7526025 101.35612463 -375.67211914 85.26074219 C-375.00456604 84.98572876 -374.33701294 84.71071533 -373.64923096 84.42736816 C-351.89037109 75.47742226 -329.87254758 67.22231064 -307.81091309 59.05438232 C-304.87407604 57.96461313 -301.94145444 56.86363583 -299.00805664 55.76464844 C-216.27031159 25.06097361 -128.50335977 5.85360955 0 0 Z M-199.4402771 566.50292969 C-200.87750688 567.17062437 -202.31550769 567.83666207 -203.75430298 568.50097656 C-205.73925842 569.41936228 -207.71994858 570.34632251 -209.69946289 571.27636719 C-211.39703735 572.06962402 -211.39703735 572.06962402 -213.12890625 572.87890625 C-215.78384788 574.00719876 -215.78384788 574.00719876 -216.67211914 576.26074219 C-216.63160784 578.07126869 -216.51487031 579.88026005 -216.36372375 581.68492126 C-216.26990921 582.8392868 -216.17609467 583.99365234 -216.07943726 585.18299866 C-215.9699173 586.45767502 -215.86039734 587.73235138 -215.74755859 589.0456543 C-215.6354627 590.39843616 -215.52388811 591.75126131 -215.41279602 593.10412598 C-215.17111771 596.03392369 -214.92580133 598.96338678 -214.67775917 601.89265251 C-214.27993986 606.592203 -213.89075741 611.29244534 -213.50273132 615.99281311 C-212.74020888 625.21550089 -211.96923177 634.4374723 -211.19713593 643.65936279 C-210.03218574 657.57670131 -208.87231303 671.49445505 -207.72290039 685.41308594 C-207.65655852 686.21594135 -207.59021665 687.01879676 -207.52186441 687.84598112 C-205.63802362 710.66290145 -203.87868377 733.48422855 -202.34008789 756.32714844 C-202.25935846 757.52266768 -202.17862904 758.71818691 -202.09545326 759.94993401 C-201.59667376 767.38544178 -201.12154155 774.82209039 -200.67211914 782.26074219 C-200.6177494 783.14748753 -200.56337967 784.03423286 -200.50736237 784.94784927 C-199.71383667 798.14675634 -199.52385477 811.30569441 -199.53930664 824.52636719 C-199.53862956 826.61830659 -199.53765621 828.71024592 -199.53640747 830.80218506 C-199.53494556 835.16207639 -199.53703335 839.52194704 -199.54174805 843.88183594 C-199.54740244 849.36760369 -199.54409818 854.85332244 -199.53829575 860.33908844 C-199.51692009 884.33136429 -199.66972465 908.28706273 -200.67211914 932.26074219 C-177.05343973 921.35454819 -154.02281721 909.25564161 -131.25512695 896.67871094 C-128.63917537 895.24265736 -126.01305937 893.82712953 -123.38305664 892.41699219 C-70.57673871 864.05075523 -15.15468717 829.57674014 24.26928711 783.65527344 C25.82369418 781.84720601 27.39742841 780.05572911 28.98022461 778.27246094 C37.09844788 769.06736428 44.35545641 759.35666494 51.32788086 749.26074219 C51.76261719 748.63135742 52.19735352 748.00197266 52.64526367 747.35351562 C68.90166879 723.56016809 78.71624742 696.77576954 82.32788086 668.26074219 C82.4606543 667.23980469 82.59342773 666.21886719 82.73022461 665.16699219 C85.35400996 640.15117565 82.96423552 614.21437592 75.32788086 590.26074219 C75.11824707 589.59349121 74.90861328 588.92624023 74.69262695 588.23876953 C69.57007445 572.35846242 61.8614241 555.4462791 50.32788086 543.26074219 C49.5944043 542.43832031 48.86092773 541.61589844 48.10522461 540.76855469 C30.66784146 522.11197239 6.19956272 515.16766716 -18.75317383 514.17822266 C-83.23124304 512.01808507 -142.32140938 539.96714973 -199.4402771 566.50292969 Z " fill="#FFFFFF" transform="translate(1115.672119140625,611.7392578125)"/>
</svg>
